<svg height="512" viewBox="0 0 128 128" width="512" xmlns="http://www.w3.org/2000/svg"><path d="m105.186 107.493v-9.76a30.1 30.1 0 0 0 -27.1-29.914 23.682 23.682 0 0 0 10.959-15.005 3.491 3.491 0 0 0 .933.129c2.451 0 4.37-2.529 4.37-5.757s-1.919-5.757-4.37-5.757a3.264 3.264 0 0 0 -.329.022v-18.487a9.449 9.449 0 0 0 -9.438-9.438h-1.363c-.544-.354-1.1-.688-1.676-1a31.189 31.189 0 0 0 -22.072-5.726c-26.889 3.323-26.914 26.876-26.911 27.113a1 1 0 0 0 1.789.6 31.535 31.535 0 0 1 4.242-4.45c.333-.259.667-.491.991-.7a28.377 28.377 0 0 0 -3.1 9.926 29 29 0 0 0 3.817 16.6 1 1 0 0 0 1.826-.333 41.116 41.116 0 0 1 1.231-4.306 3.907 3.907 0 0 0 3.115 1.693 3.464 3.464 0 0 0 .934-.13 23.684 23.684 0 0 0 10.947 15 30.1 30.1 0 0 0 -27.168 29.92v9.76a9 9 0 0 0 1 17.941h76.373a9 9 0 0 0 1-17.941z" fill="#e6e7e8"/><path d="m120.148 55.814h-20.4a4.356 4.356 0 0 0 -4.351 4.352v10.834a4.356 4.356 0 0 0 4.351 4.352h3.988v3.827a1 1 0 0 0 1.662.749l5.18-4.576h9.573a4.357 4.357 0 0 0 4.349-4.352v-10.834a4.357 4.357 0 0 0 -4.352-4.352z" fill="#e6e7e8"/><path d="m26.6 79.924a1 1 0 0 0 1.663-.749v-3.827h3.988a4.356 4.356 0 0 0 4.355-4.348v-10.834a4.356 4.356 0 0 0 -4.351-4.352h-20.4a4.357 4.357 0 0 0 -4.355 4.352v10.834a4.357 4.357 0 0 0 4.353 4.352h9.573z" fill="#e6e7e8"/><path d="m100.186 104.434v-10.7a29.062 29.062 0 0 0 -29.062-29.063h-1.077a22.556 22.556 0 0 1 -8.006 1.464 22.548 22.548 0 0 1 -8.006-1.464h-1.16a29.062 29.062 0 0 0 -29.061 29.062v10.7a8 8 0 0 1 0 16h76.372a8 8 0 0 1 0-16z" fill="#ffd7e5"/><path d="m56.616 74.605h10.85a8.852 8.852 0 0 0 3.447-7.01v-3.269a22.66 22.66 0 0 1 -17.744 0v3.274a8.849 8.849 0 0 0 3.447 7.005z" fill="#fff"/><path d="m85.979 38.429a2.545 2.545 0 0 0 -1.33.388v4.71a22.78 22.78 0 0 1 -.321 3.782 2.641 2.641 0 0 0 1.651.634c1.861 0 3.369-2.13 3.369-4.757s-1.508-4.757-3.369-4.757z" fill="#fff"/><path d="m39.432 43.527v-4.71a2.545 2.545 0 0 0 -1.33-.388c-1.86 0-3.369 2.13-3.369 4.757s1.509 4.757 3.369 4.757a2.636 2.636 0 0 0 1.651-.634 22.78 22.78 0 0 1 -.321-3.782z" fill="#fff"/><path d="m74.572 10.526a22.445 22.445 0 0 0 -2.013-1.2 18.014 18.014 0 0 1 1.5 1.2z" fill="#fff"/><path d="m74.063 25.088v-.041s-15.34-5.147-27.484 3.312a28.472 28.472 0 0 0 -7.147 7.441v7.724a22.608 22.608 0 0 0 22.609 22.611 22.608 22.608 0 0 0 22.608-22.608v-10h-2.149a8.438 8.438 0 0 1 -8.437-8.439z" fill="#fff"/><path d="m74.063 10.526h2.148a8.438 8.438 0 0 1 8.438 8.438v14.562a0 0 0 0 1 0 0h-2.149a8.438 8.438 0 0 1 -8.438-8.438v-14.562a0 0 0 0 1 .001 0z" fill="#d4fbff"/><path d="m74.063 25.047s-15.34-5.147-27.484 3.312c-10.639 7.411-13.806 23-13.806 23a28.243 28.243 0 0 1 -3.667-15.975c.565-6.342 4.586-12.337 4.586-12.337a14.651 14.651 0 0 0 -4.086 2.229 32.481 32.481 0 0 0 -4.416 4.624s-.279-22.856 26.036-26.106a30.183 30.183 0 0 1 22.837 6.732z" fill="#d4fbff"/><path d="m92.186 112.434a7.963 7.963 0 0 1 .669-3.2v-30.629a4 4 0 0 0 -4-4h-53.71a4 4 0 0 0 -4 4v35.395h61.2a8.038 8.038 0 0 1 -.159-1.566z" fill="#6dc9f7"/><path d="m35.5 114v-30.111a4 4 0 0 1 4-4h45a4 4 0 0 1 4 4v30.111z" fill="#d4fbff"/><path d="m84.5 79.889h-3a4 4 0 0 1 4 4v30.111h3v-30.111a4 4 0 0 0 -4-4z" fill="#fff"/><path d="m92.342 114h-60.684a8.011 8.011 0 0 1 -4.688 5.781 3.981 3.981 0 0 0 2.175.649h65.71a3.976 3.976 0 0 0 2.174-.649 8.012 8.012 0 0 1 -4.687-5.781z" fill="#0089ef"/><path d="m84.633 96.957a2.831 2.831 0 0 1 -2.576 2.819l-24.857 2.252v-10.143l24.86 2.253a2.83 2.83 0 0 1 2.573 2.819z" fill="#fa759e"/><path d="m50.151 99.718 7.046 2.31v-10.143l-7.046 2.311z" fill="#ffd7e5"/><circle cx="23.814" cy="112.434" fill="#fff" r="8"/><circle cx="100.186" cy="112.434" fill="#fff" r="8"/><path d="m116.149 52.814h-20.4a3.351 3.351 0 0 0 -3.351 3.352v10.834a3.351 3.351 0 0 0 3.351 3.352h4.988v4.827l5.464-4.827h9.952a3.352 3.352 0 0 0 3.347-3.352v-10.834a3.352 3.352 0 0 0 -3.351-3.352z" fill="#fa759e"/><path d="m103.453 64v.014a.833.833 0 0 1 -1.164.764l-4.689-2.032a1.194 1.194 0 0 1 -.72-1.1v-.013a1.2 1.2 0 0 1 .72-1.1l4.693-2.034a.833.833 0 0 1 1.164.764v.023a.833.833 0 0 1 -.534.777l-4.053 1.567 4.055 1.6a.831.831 0 0 1 .528.77z" fill="#fff"/><path d="m107.161 56.627a.774.774 0 0 0 -.934.571l-2.064 8.527a.775.775 0 0 0 .57.934.763.763 0 0 0 .183.022.771.771 0 0 0 .751-.592l2.064-8.527a.775.775 0 0 0 -.57-.935z" fill="#fff"/><path d="m114.3 62.73-4.693 2.043a.833.833 0 0 1 -1.166-.763v-.01a.833.833 0 0 1 .529-.775l4.068-1.6-4.064-1.573a.832.832 0 0 1 -.533-.776.833.833 0 0 1 1.163-.765l4.693 2.024a1.2 1.2 0 0 1 .721 1.1 1.2 1.2 0 0 1 -.718 1.095z" fill="#fff"/><path d="m7.851 52.814h20.4a3.351 3.351 0 0 1 3.352 3.352v10.834a3.352 3.352 0 0 1 -3.352 3.352h-4.984v4.827l-5.467-4.831h-9.949a3.352 3.352 0 0 1 -3.351-3.348v-10.834a3.352 3.352 0 0 1 3.351-3.352z" fill="#fa759e"/><g fill="#3a2c60"><path d="m52.066 38.1a2.261 2.261 0 1 0 2.261 2.261 2.261 2.261 0 0 0 -2.261-2.261z"/><path d="m72.015 38.1a2.261 2.261 0 1 0 2.261 2.261 2.261 2.261 0 0 0 -2.261-2.261z"/><path d="m62.041 51.425a3.574 3.574 0 0 0 3.57-3.571v-1.507a1 1 0 0 0 -2 0v1.507a1.571 1.571 0 1 1 -3.141 0v-1.507a1 1 0 0 0 -2 0v1.507a3.575 3.575 0 0 0 3.571 3.571z"/><path d="m70.294 35.984 4.428.771a1.02 1.02 0 0 0 .173.015 1 1 0 0 0 .17-1.986l-4.427-.771a1 1 0 0 0 -.344 1.971z"/><path d="m53.443 34.013-4.427.771a1 1 0 0 0 .171 1.986 1.017 1.017 0 0 0 .172-.015l4.428-.771a1 1 0 1 0 -.344-1.971z"/><path d="m67.847 54.623a1 1 0 1 0 -1.594-1.207 5.551 5.551 0 0 1 -4.212 1.918 5.359 5.359 0 0 1 -4.2-1.905 1 1 0 0 0 -1.618 1.176 7.371 7.371 0 0 0 5.82 2.729 7.574 7.574 0 0 0 5.804-2.711z"/><path d="m55.625 80.889h6.5a1 1 0 1 0 0-2h-6.5a1 1 0 0 0 0 2z"/><path d="m56.885 90.935-6.575 2.156a5.807 5.807 0 0 0 -4.46-.935c-3.449.849-7.051 4.561-7.2 4.719a1 1 0 0 0 .854 1.684 6.039 6.039 0 0 1 2.887.252 4.643 4.643 0 0 1 1.054 1.008 5.558 5.558 0 0 0 2.759 2.015 3.45 3.45 0 0 0 .875.109 6.424 6.424 0 0 0 3.259-1.112l6.55 2.148a1 1 0 0 0 .311.049.877.877 0 0 0 .09 0l24.862-2.252a3.831 3.831 0 0 0 0-7.63l-24.865-2.257a1.016 1.016 0 0 0 -.401.046zm25.082 4.2a1.83 1.83 0 0 1 0 3.646l-24.656 2.234-6.028-1.977v-4.162l6.029-1.976z"/><path d="m101.187 103.493v-9.76a30.1 30.1 0 0 0 -27.116-29.9 23.685 23.685 0 0 0 10.975-15.022 3.447 3.447 0 0 0 .933.132c2.45 0 4.369-2.529 4.369-5.757s-1.919-5.756-4.369-5.756c-.113 0-.22.022-.33.032v-18.5a9.449 9.449 0 0 0 -9.438-9.438h-1.372c-.536-.346-1.082-.678-1.646-.981a31.184 31.184 0 0 0 -22.093-5.743c-26.889 3.323-26.913 26.875-26.911 27.113a1 1 0 0 0 1.789.6 31.661 31.661 0 0 1 4.242-4.451c.333-.258.667-.49.992-.7a28.39 28.39 0 0 0 -3.1 9.927 29.007 29.007 0 0 0 3.816 16.6 1 1 0 0 0 .846.467.914.914 0 0 0 .18-.017 1 1 0 0 0 .8-.783 41.193 41.193 0 0 1 1.233-4.311 3.9 3.9 0 0 0 3.118 1.7 3.447 3.447 0 0 0 .933-.132 23.683 23.683 0 0 0 10.962 15.01 30.092 30.092 0 0 0 -27.187 29.91v9.76a9 9 0 0 0 1 17.941h76.373a9 9 0 0 0 1-17.941zm-2 0a8.971 8.971 0 0 0 -5.331 2.553v-27.441a4.942 4.942 0 0 0 -.336-1.758 27.914 27.914 0 0 1 5.667 16.886zm-45.018-35.893v-1.811h.026a23.543 23.543 0 0 0 15.7 0s.009.006.013 0v1.811a7.781 7.781 0 0 1 -.5 2.7v.053h-.02a7.961 7.961 0 0 1 -2.3 3.257h-10.088a7.83 7.83 0 0 1 -2.831-6.01zm34.687 8.01a3 3 0 0 1 3 3v30.437a8.931 8.931 0 0 0 -.669 3.392c0 .192.016.381.028.57h-1.715v-29.12a5.006 5.006 0 0 0 -5-5h-18.125a1 1 0 0 0 0 2h18.125a3 3 0 0 1 3 3v29.111h-51v-29.111a3 3 0 0 1 3-3h11.875a1 1 0 1 0 0-2h-11.875a5.006 5.006 0 0 0 -5 5v29.111h-1.715c.012-.189.029-.378.029-.57a8.95 8.95 0 0 0 -.669-3.392v-30.433a3 3 0 0 1 3-3zm-56.421 39.39h59.13a9.018 9.018 0 0 0 2.977 4.43h-65.084a9.018 9.018 0 0 0 2.977-4.43zm58.888-40.718a4.944 4.944 0 0 0 -2.467-.677h-19a9.806 9.806 0 0 0 2.061-6.01v-1.9a27.981 27.981 0 0 1 19.406 8.587zm-5.344-34.852c1.284 0 2.369 1.72 2.369 3.756s-1.085 3.757-2.369 3.757a1.456 1.456 0 0 1 -.563-.13 23.755 23.755 0 0 0 .233-3.286v-4.055a1.408 1.408 0 0 1 .33-.042zm-2.33-20.467v13.562h-1.149a7.445 7.445 0 0 1 -7.437-7.438v-13.562h1.147a7.446 7.446 0 0 1 7.439 7.438zm-51.19 29.586a27 27 0 0 1 -2.359-13.076c.534-6 4.381-11.811 4.42-11.869a1 1 0 0 0 -1.131-1.51 15.583 15.583 0 0 0 -4.4 2.391 22.334 22.334 0 0 0 -2.5 2.364c1.017-6.149 5.458-19.666 24.86-22.062a29.565 29.565 0 0 1 21.715 6.2v12.729c-4.06-1.064-16.591-3.47-27.057 3.823-8.296 5.778-12.141 16.161-13.548 21.01zm5.641-1.606c-.955 0-1.8-.953-2.169-2.278a47.153 47.153 0 0 1 2.443-5.2c.018 0 .037 0 .056.007v4.055a23.73 23.73 0 0 0 .233 3.285 1.439 1.439 0 0 1 -.563.131zm2.33-3.416v-7.4a27.22 27.22 0 0 1 6.716-6.95c10.209-7.109 22.973-4.2 25.951-3.374a9.443 9.443 0 0 0 9.4 8.72h1.148v9a21.608 21.608 0 0 1 -43.216 0zm11.739 22.162v1.911a9.806 9.806 0 0 0 2.061 6.01h-19.085a4.932 4.932 0 0 0 -2.468.678 27.975 27.975 0 0 1 19.492-8.599zm-21.689 11.157a4.947 4.947 0 0 0 -.335 1.759v27.441a8.976 8.976 0 0 0 -5.331-2.553v-9.76a27.916 27.916 0 0 1 5.666-16.887zm-13.666 35.588a7 7 0 1 1 7 7 7.008 7.008 0 0 1 -7-7zm83.373 7a7 7 0 1 1 7-7 7.008 7.008 0 0 1 -7 7z"/><path d="m116.148 51.814h-20.4a4.356 4.356 0 0 0 -4.351 4.352v10.834a4.356 4.356 0 0 0 4.351 4.352h3.988v3.827a1 1 0 0 0 1.663.749l5.179-4.576h9.573a4.357 4.357 0 0 0 4.349-4.352v-10.834a4.357 4.357 0 0 0 -4.352-4.352zm2.352 15.186a2.355 2.355 0 0 1 -2.353 2.352h-9.947a1 1 0 0 0 -.662.251l-3.8 3.358v-2.613a1 1 0 0 0 -1-1h-4.993a2.354 2.354 0 0 1 -2.351-2.348v-10.834a2.354 2.354 0 0 1 2.351-2.352h20.4a2.355 2.355 0 0 1 2.353 2.352z"/><path d="m22.605 75.924a1 1 0 0 0 1.662-.749v-3.827h3.987a4.357 4.357 0 0 0 4.352-4.348v-10.834a4.357 4.357 0 0 0 -4.352-4.352h-20.403a4.357 4.357 0 0 0 -4.351 4.352v10.834a4.357 4.357 0 0 0 4.352 4.352h9.574zm-17.105-8.924v-10.834a2.355 2.355 0 0 1 2.352-2.352h20.4a2.355 2.355 0 0 1 2.352 2.352v10.834a2.355 2.355 0 0 1 -2.352 2.352h-4.985a1 1 0 0 0 -1 1v2.609l-3.8-3.358a1 1 0 0 0 -.662-.251h-9.954a2.355 2.355 0 0 1 -2.351-2.352z"/></g><path d="m16.165 65.863a.647.647 0 0 1 .2.514.632.632 0 0 1 -.2.5.715.715 0 0 1 -.49.176h-.956a1.472 1.472 0 0 1 -1.61-1.609v-2.104a1.128 1.128 0 0 0 -.163-.684.761.761 0 0 0 -.563-.248.734.734 0 0 1 -.5-.212.7.7 0 0 1 -.176-.5.671.671 0 0 1 .176-.478.734.734 0 0 1 .5-.212.761.761 0 0 0 .563-.248 1.128 1.128 0 0 0 .163-.684v-2.119a1.472 1.472 0 0 1 1.61-1.61h.956a.715.715 0 0 1 .49.176.632.632 0 0 1 .2.5.647.647 0 0 1 -.2.514.715.715 0 0 1 -.49.176h-.275a.525.525 0 0 0 -.375.115.543.543 0 0 0 -.122.4v2.064a1.472 1.472 0 0 1 -.3.932 1.267 1.267 0 0 1 -.7.484 1.272 1.272 0 0 1 .7.484 1.474 1.474 0 0 1 .3.932v2.045a.543.543 0 0 0 .122.405.525.525 0 0 0 .375.116h.278a.715.715 0 0 1 .487.175z" fill="#fff"/><path d="m24.224 61.216a.671.671 0 0 1 .176.478.7.7 0 0 1 -.176.5.732.732 0 0 1 -.5.212.763.763 0 0 0 -.563.248 1.135 1.135 0 0 0 -.161.686l-.012 2.106a1.6 1.6 0 0 1 -.423 1.185 1.586 1.586 0 0 1 -1.174.424h-.969a.7.7 0 0 1 -.478-.176.632.632 0 0 1 -.2-.5.647.647 0 0 1 .2-.514.7.7 0 0 1 .478-.175h.291a.525.525 0 0 0 .375-.116.543.543 0 0 0 .121-.405v-2.047a1.469 1.469 0 0 1 .3-.932 1.272 1.272 0 0 1 .7-.484 1.267 1.267 0 0 1 -.7-.484 1.467 1.467 0 0 1 -.3-.932v-2.057a.543.543 0 0 0 -.121-.4.525.525 0 0 0 -.375-.115h-.291a.7.7 0 0 1 -.478-.176.647.647 0 0 1 -.2-.514.632.632 0 0 1 .2-.5.7.7 0 0 1 .478-.176h.969a1.586 1.586 0 0 1 1.174.424 1.6 1.6 0 0 1 .423 1.186v2.117a1.128 1.128 0 0 0 .164.684.775.775 0 0 0 .574.248.732.732 0 0 1 .498.205z" fill="#fff"/></svg>